<svg width="25" height="24" viewBox="0 0 25 24" fill="none" xmlns="http://www.w3.org/2000/svg">
<g clip-path="url(#clip0_620_53)">
<path d="M24.8125 12C24.8125 5.37258 19.4399 0 12.8125 0C6.18508 0 0.8125 5.37258 0.8125 12C0.8125 17.9895 5.2007 22.954 10.9375 23.8542V15.4688H7.89062V12H10.9375V9.35625C10.9375 6.34875 12.7291 4.6875 15.4701 4.6875C16.7826 4.6875 18.1562 4.92188 18.1562 4.92188V7.875H16.6431C15.1525 7.875 14.6875 8.80008 14.6875 9.75V12H18.0156L17.4836 15.4688H14.6875V23.8542C20.4243 22.954 24.8125 17.9895 24.8125 12Z" fill="white"/>
</g>
<defs>
<clipPath id="clip0_620_53">
<rect width="24" height="24" fill="white" transform="translate(0.8125)"/>
</clipPath>
</defs>
</svg>
