<svg width="25" height="24" viewBox="0 0 25 24" fill="none" xmlns="http://www.w3.org/2000/svg">
<g clip-path="url(#clip0_620_47)">
<path d="M23.0359 0H2.58437C1.60469 0 0.8125 0.773438 0.8125 1.72969V22.2656C0.8125 23.2219 1.60469 24 2.58437 24H23.0359C24.0156 24 24.8125 23.2219 24.8125 22.2703V1.72969C24.8125 0.773438 24.0156 0 23.0359 0ZM7.93281 20.4516H4.37031V8.99531H7.93281V20.4516ZM6.15156 7.43438C5.00781 7.43438 4.08438 6.51094 4.08438 5.37187C4.08438 4.23281 5.00781 3.30937 6.15156 3.30937C7.29063 3.30937 8.21406 4.23281 8.21406 5.37187C8.21406 6.50625 7.29063 7.43438 6.15156 7.43438ZM21.2641 20.4516H17.7062V14.8828C17.7062 13.5562 17.6828 11.8453 15.8547 11.8453C14.0031 11.8453 13.7219 13.2937 13.7219 14.7891V20.4516H10.1688V8.99531H13.5812V10.5609H13.6281C14.1016 9.66094 15.2641 8.70938 16.9938 8.70938C20.5984 8.70938 21.2641 11.0813 21.2641 14.1656V20.4516Z" fill="white"/>
</g>
<defs>
<clipPath id="clip0_620_47">
<rect width="24" height="24" fill="white" transform="translate(0.8125)"/>
</clipPath>
</defs>
</svg>
