<svg width="85" height="85" viewBox="0 0 85 85" fill="none" xmlns="http://www.w3.org/2000/svg">
<g clip-path="url(#clip0_620_60)">
<path d="M77.7745 0H7.22451C3.23425 0 -0.000488281 3.23474 -0.000488281 7.225V77.775C-0.000488281 81.7653 3.23425 85 7.22451 85H77.7745C81.7648 85 84.9995 81.7653 84.9995 77.775V7.225C84.9995 3.23474 81.7648 0 77.7745 0Z" fill="black"/>
<path d="M20.2777 57.9655H34.57L42.5101 68.762L50.4503 57.9655H64.7425C65.4544 57.9655 66.002 57.4175 66.002 56.7051V17.4104C66.002 16.698 65.4544 16.15 64.7425 16.15H20.2777C19.5659 16.15 19.0182 16.698 19.0182 17.4104V56.7051C19.0182 57.4175 19.5659 57.9655 20.2777 57.9655ZM53.3525 25.7956H58.4452V49.1421H53.3525V25.7956ZM44.4267 37.4688H49.5193V49.1421H44.4267V37.4688ZM35.5009 32.2077H40.5936V49.1969H35.5009V32.2077ZM26.5751 43.7713H31.6677V49.1969H26.5751V43.7713Z" fill="#23EEA6"/>
</g>
<defs>
<clipPath id="clip0_620_60">
<rect width="85" height="85" fill="white" transform="translate(-0.000488281)"/>
</clipPath>
</defs>
</svg>
