<svg width="41" height="40" viewBox="0 0 41 40" fill="none" xmlns="http://www.w3.org/2000/svg">
<rect y="0.437012" width="40.479" height="39.2523" rx="7" fill="#ECF9F4"/>
<mask id="path-2-outside-1_0_1930" maskUnits="userSpaceOnUse" x="13.4921" y="16.7148" width="10.6066" height="10.6066" fill="black">
<rect fill="white" x="13.4921" y="16.7148" width="10.6066" height="10.6066"/>
<path d="M16.5004 25.2639L15.9894 24.753L16.5556 24.1867C16.1689 23.7264 15.9226 23.1716 15.8167 22.5225L16.6385 22.3085C16.772 22.8931 17.016 23.3673 17.3704 23.731C17.4763 23.8368 17.5937 23.9174 17.7226 23.9726C18.0771 24.1338 18.4039 24.0647 18.7032 23.7655C18.7952 23.6734 18.862 23.5698 18.9034 23.4547C18.9909 23.2108 18.9449 22.8517 18.7653 22.3775C18.5628 21.8251 18.4454 21.4913 18.4131 21.3762C18.2474 20.6949 18.4039 20.1149 18.8827 19.6361C19.1129 19.4059 19.3753 19.2494 19.6699 19.1665C20.2085 19.0146 20.7425 19.1159 21.272 19.4704L21.8589 18.8834L22.3699 19.3944L21.7968 19.9676C21.8658 20.055 21.928 20.1448 21.9832 20.2369C22.3055 20.7709 22.3515 21.2957 22.1213 21.8113L21.2858 21.5558C21.2904 21.542 21.295 21.5236 21.2996 21.5005C21.4101 21.0678 21.2996 20.6857 20.9681 20.3542C20.8668 20.253 20.7518 20.1747 20.6229 20.1195C20.2684 19.9676 19.9461 20.0366 19.6561 20.3266C19.5778 20.4049 19.518 20.497 19.4766 20.6028C19.3891 20.8376 19.4328 21.1944 19.6078 21.6732C19.8195 22.244 19.9392 22.5847 19.9668 22.6952C20.1418 23.3857 19.9945 23.9657 19.5249 24.4353C19.3039 24.6563 19.0576 24.8197 18.786 24.9256C18.2198 25.1327 17.6559 25.0476 17.0942 24.6701L16.5004 25.2639Z"/>
</mask>
<path d="M16.5004 25.2639L15.9894 24.753L16.5556 24.1867C16.1689 23.7264 15.9226 23.1716 15.8167 22.5225L16.6385 22.3085C16.772 22.8931 17.016 23.3673 17.3704 23.731C17.4763 23.8368 17.5937 23.9174 17.7226 23.9726C18.0771 24.1338 18.4039 24.0647 18.7032 23.7655C18.7952 23.6734 18.862 23.5698 18.9034 23.4547C18.9909 23.2108 18.9449 22.8517 18.7653 22.3775C18.5628 21.8251 18.4454 21.4913 18.4131 21.3762C18.2474 20.6949 18.4039 20.1149 18.8827 19.6361C19.1129 19.4059 19.3753 19.2494 19.6699 19.1665C20.2085 19.0146 20.7425 19.1159 21.272 19.4704L21.8589 18.8834L22.3699 19.3944L21.7968 19.9676C21.8658 20.055 21.928 20.1448 21.9832 20.2369C22.3055 20.7709 22.3515 21.2957 22.1213 21.8113L21.2858 21.5558C21.2904 21.542 21.295 21.5236 21.2996 21.5005C21.4101 21.0678 21.2996 20.6857 20.9681 20.3542C20.8668 20.253 20.7518 20.1747 20.6229 20.1195C20.2684 19.9676 19.9461 20.0366 19.6561 20.3266C19.5778 20.4049 19.518 20.497 19.4766 20.6028C19.3891 20.8376 19.4328 21.1944 19.6078 21.6732C19.8195 22.244 19.9392 22.5847 19.9668 22.6952C20.1418 23.3857 19.9945 23.9657 19.5249 24.4353C19.3039 24.6563 19.0576 24.8197 18.786 24.9256C18.2198 25.1327 17.6559 25.0476 17.0942 24.6701L16.5004 25.2639Z" fill="#3DC293"/>
<path d="M16.5004 25.2639L16.3589 25.4054L16.5004 25.5468L16.6418 25.4054L16.5004 25.2639ZM15.9894 24.753L15.8479 24.6115L15.7065 24.753L15.8479 24.8944L15.9894 24.753ZM16.5556 24.1867L16.697 24.3281L16.8267 24.1985L16.7087 24.0581L16.5556 24.1867ZM15.8167 22.5225L15.7663 22.329L15.59 22.3749L15.6193 22.5547L15.8167 22.5225ZM16.6385 22.3085L16.8335 22.2639L16.7876 22.0629L16.5881 22.1149L16.6385 22.3085ZM17.3704 23.731L17.2272 23.8706L17.229 23.8724L17.3704 23.731ZM17.7226 23.9726L17.8054 23.7905L17.8014 23.7888L17.7226 23.9726ZM18.9034 23.4547L19.0916 23.5225L19.0917 23.5222L18.9034 23.4547ZM18.7653 22.3775L18.5775 22.4464L18.5783 22.4483L18.7653 22.3775ZM18.4131 21.3762L18.2187 21.4235L18.2205 21.4302L18.4131 21.3762ZM19.6699 19.1665L19.7241 19.3591L19.7242 19.359L19.6699 19.1665ZM21.272 19.4704L21.1607 19.6366L21.2972 19.728L21.4134 19.6118L21.272 19.4704ZM21.8589 18.8834L22.0003 18.742L21.8589 18.6006L21.7175 18.742L21.8589 18.8834ZM22.3699 19.3944L22.5113 19.5358L22.6527 19.3944L22.5113 19.253L22.3699 19.3944ZM21.7968 19.9676L21.6553 19.8261L21.5296 19.9519L21.6398 20.0915L21.7968 19.9676ZM21.9832 20.2369L21.8117 20.3398L21.812 20.3402L21.9832 20.2369ZM22.1213 21.8113L22.0628 22.0025L22.2319 22.0542L22.3039 21.8928L22.1213 21.8113ZM21.2858 21.5558L21.096 21.4925L21.0312 21.6871L21.2273 21.747L21.2858 21.5558ZM21.2996 21.5005L21.1055 21.451L21.1035 21.4613L21.2996 21.5005ZM20.6229 20.1195L20.5441 20.3033L20.6229 20.1195ZM19.4766 20.6028L19.2903 20.53L19.2891 20.533L19.4766 20.6028ZM19.6078 21.6732L19.4199 21.7418L19.4203 21.7427L19.6078 21.6732ZM19.9668 22.6952L19.7728 22.7437L19.773 22.7443L19.9668 22.6952ZM18.786 24.9256L18.8548 25.1135L18.8587 25.1119L18.786 24.9256ZM17.0942 24.6701L17.2058 24.5041L17.0692 24.4123L16.9528 24.5287L17.0942 24.6701ZM16.6418 25.1225L16.1308 24.6115L15.8479 24.8944L16.3589 25.4054L16.6418 25.1225ZM16.1308 24.8944L16.697 24.3281L16.4142 24.0453L15.8479 24.6115L16.1308 24.8944ZM16.7087 24.0581C16.3474 23.6278 16.1148 23.1073 16.0141 22.4903L15.6193 22.5547C15.7305 23.2359 15.9905 23.8249 16.4025 24.3154L16.7087 24.0581ZM15.8672 22.7161L16.6889 22.502L16.5881 22.1149L15.7663 22.329L15.8672 22.7161ZM16.4435 22.353C16.5837 22.9669 16.8428 23.4761 17.2272 23.8706L17.5137 23.5914C17.1892 23.2584 16.9603 22.8193 16.8335 22.2639L16.4435 22.353ZM17.229 23.8724C17.3517 23.995 17.49 24.0905 17.6438 24.1565L17.8014 23.7888C17.6974 23.7443 17.601 23.6787 17.5119 23.5895L17.229 23.8724ZM17.6398 24.1547C17.8493 24.2499 18.0631 24.2821 18.2749 24.2374C18.4852 24.193 18.6748 24.0767 18.8446 23.9069L18.5617 23.6241C18.4323 23.7536 18.3088 23.8214 18.1923 23.846C18.0772 23.8703 17.9504 23.8565 17.8054 23.7906L17.6398 24.1547ZM18.8446 23.9069C18.9561 23.7954 19.0396 23.667 19.0916 23.5225L18.7152 23.387C18.6844 23.4726 18.6344 23.5514 18.5617 23.6241L18.8446 23.9069ZM19.0917 23.5222C19.2047 23.2069 19.1349 22.7888 18.9524 22.3067L18.5783 22.4483C18.7548 22.9145 18.777 23.2146 18.7152 23.3873L19.0917 23.5222ZM18.9531 22.3087C18.7492 21.7525 18.6353 21.4279 18.6057 21.3223L18.2205 21.4302C18.2554 21.5548 18.3764 21.8977 18.5775 22.4464L18.9531 22.3087ZM18.6075 21.329C18.4575 20.7125 18.5968 20.2048 19.0241 19.7775L18.7413 19.4947C18.2111 20.0249 18.0373 20.6773 18.2188 21.4235L18.6075 21.329ZM19.0241 19.7775C19.2317 19.57 19.4645 19.4321 19.7241 19.3591L19.6158 18.974C19.286 19.0667 18.9941 19.2419 18.7413 19.4947L19.0241 19.7775ZM19.7242 19.359C20.1983 19.2253 20.6724 19.3096 21.1607 19.6366L21.3832 19.3042C20.8127 18.9222 20.2188 18.8039 19.6156 18.974L19.7242 19.359ZM21.4134 19.6118L22.0003 19.0248L21.7175 18.742L21.1305 19.3289L21.4134 19.6118ZM21.7175 19.0248L22.2285 19.5358L22.5113 19.253L22.0003 18.742L21.7175 19.0248ZM22.2285 19.253L21.6553 19.8261L21.9382 20.109L22.5113 19.5358L22.2285 19.253ZM21.6398 20.0915C21.7038 20.1725 21.761 20.2553 21.8117 20.3398L22.1547 20.134C22.0949 20.0343 22.0279 19.9375 21.9537 19.8436L21.6398 20.0915ZM21.812 20.3402C22.1045 20.825 22.1391 21.2809 21.9387 21.7297L22.3039 21.8928C22.5639 21.3105 22.5064 20.7167 22.1544 20.1335L21.812 20.3402ZM22.1798 21.62L21.3442 21.3645L21.2273 21.747L22.0628 22.0025L22.1798 21.62ZM21.4755 21.619C21.4838 21.5941 21.4903 21.5666 21.4957 21.5398L21.1035 21.4613C21.0996 21.4805 21.0969 21.4899 21.096 21.4925L21.4755 21.619ZM21.4934 21.55C21.6223 21.0448 21.4879 20.5912 21.1095 20.2128L20.8267 20.4957C21.1112 20.7802 21.1978 21.0908 21.1058 21.4511L21.4934 21.55ZM21.1095 20.2128C20.9907 20.094 20.8544 20.0011 20.7016 19.9356L20.5441 20.3033C20.6491 20.3483 20.743 20.412 20.8267 20.4957L21.1095 20.2128ZM20.7016 19.9356C20.493 19.8462 20.2816 19.8172 20.0734 19.8618C19.8663 19.9061 19.6803 20.0196 19.5147 20.1852L19.7975 20.468C19.9219 20.3436 20.0421 20.2776 20.1572 20.2529C20.2713 20.2284 20.3982 20.2408 20.5441 20.3033L20.7016 19.9356ZM19.5147 20.1852C19.4164 20.2835 19.3415 20.3991 19.2903 20.53L19.6628 20.6757C19.6945 20.5948 19.7393 20.5263 19.7975 20.468L19.5147 20.1852ZM19.2891 20.533C19.1748 20.84 19.2429 21.2573 19.4199 21.7418L19.7956 21.6045C19.6228 21.1315 19.6034 20.8352 19.664 20.6727L19.2891 20.533ZM19.4203 21.7427C19.6342 22.3194 19.7486 22.6467 19.7728 22.7437L20.1609 22.6467C20.1299 22.5226 20.0049 22.1686 19.7953 21.6036L19.4203 21.7427ZM19.773 22.7443C19.9321 23.3725 19.799 23.8784 19.3835 24.2939L19.6663 24.5767C20.19 24.0531 20.3514 23.3989 20.1607 22.646L19.773 22.7443ZM19.3835 24.2939C19.1807 24.4967 18.9574 24.6441 18.7134 24.7392L18.8587 25.1119C19.1579 24.9953 19.4272 24.8158 19.6663 24.5767L19.3835 24.2939ZM18.7173 24.7378C18.2192 24.92 17.7218 24.8509 17.2058 24.5041L16.9827 24.8361C17.5899 25.2442 18.2204 25.3455 18.8547 25.1134L18.7173 24.7378ZM16.9528 24.5287L16.3589 25.1225L16.6418 25.4054L17.2356 24.8115L16.9528 24.5287Z" fill="#3DC293" mask="url(#path-2-outside-1_0_1930)"/>
<path d="M28.9147 18.2228L29.6139 18.1895L29.6139 18.1895L28.9147 18.2228ZM25.4942 17.263L25.1924 16.6314L24.2993 17.058L24.9992 17.758L25.4942 17.263ZM23.0401 14.8089L22.5451 15.3039L23.2451 16.0038L23.6717 15.1107L23.0401 14.8089ZM22.0804 11.3886L22.0471 12.0878L22.0471 12.0878L22.0804 11.3886ZM27.696 11.656L27.6627 12.3552L27.6627 12.3552L27.696 11.656ZM28.6473 12.6073L27.9481 12.6406L27.9481 12.6406L28.6473 12.6073ZM23.04 14.8091L23.6717 15.1108L23.885 14.6641L23.535 14.3141L23.04 14.8091ZM20.2037 11.9728L19.7087 12.4678L20.2037 11.9728ZM18.7895 11.9728L18.2945 11.4778L18.7895 11.9728ZM8.06062 22.7016L8.55559 23.1966L8.06062 22.7016ZM17.6016 32.2426L17.1066 31.7476L17.6016 32.2426ZM28.3305 21.5138L28.8254 22.0087L28.3305 21.5138ZM28.3305 20.0995L27.8355 20.5945L28.3305 20.0995ZM25.494 17.2631L25.9889 16.7681L25.6389 16.4181L25.1923 16.6314L25.494 17.2631ZM26.7137 19.4725C27.8125 20.5712 29.6878 19.7416 29.6139 18.1895L28.2155 18.2561C28.2285 18.53 27.8976 18.6764 27.7037 18.4825L26.7137 19.4725ZM24.9992 17.758L26.7137 19.4725L27.7037 18.4825L25.9891 16.768L24.9992 17.758ZM25.5069 16.4084C25.4118 16.5035 25.3053 16.5774 25.1924 16.6314L25.7959 17.8946C26.0502 17.7731 26.2878 17.6073 26.4968 17.3983L25.5069 16.4084ZM25.5069 14.7962C25.952 15.2414 25.952 15.9632 25.5069 16.4084L26.4968 17.3983C27.4887 16.4064 27.4887 14.7982 26.4968 13.8063L25.5069 14.7962ZM23.8947 14.7962C24.3399 14.3511 25.0617 14.3511 25.5069 14.7962L26.4968 13.8063C25.5049 12.8144 23.8967 12.8144 22.9048 13.8063L23.8947 14.7962ZM23.6717 15.1107C23.7257 14.9978 23.7996 14.8913 23.8947 14.7962L22.9048 13.8063C22.6958 14.0153 22.53 14.2529 22.4085 14.5072L23.6717 15.1107ZM20.8307 13.5895L22.5451 15.3039L23.5351 14.314L21.8207 12.5996L20.8307 13.5895ZM22.1137 10.6894C20.5616 10.6155 19.732 12.4908 20.8307 13.5895L21.8207 12.5996C21.6268 12.4057 21.7732 12.0747 22.0471 12.0878L22.1137 10.6894ZM27.7293 10.9568L22.1137 10.6894L22.0471 12.0878L27.6627 12.3552L27.7293 10.9568ZM29.3465 12.574C29.3048 11.6987 28.6046 10.9985 27.7293 10.9568L27.6627 12.3552C27.8171 12.3625 27.9407 12.4861 27.9481 12.6406L29.3465 12.574ZM29.6139 18.1895L29.3465 12.574L27.9481 12.6406L28.2155 18.2561L29.6139 18.1895ZM23.535 14.3141L20.6987 11.4778L19.7087 12.4678L22.5451 15.3041L23.535 14.3141ZM20.6987 11.4778C20.0348 10.8139 18.9584 10.8139 18.2945 11.4778L19.2844 12.4678C19.4016 12.3506 19.5916 12.3506 19.7087 12.4678L20.6987 11.4778ZM18.2945 11.4778L7.56564 22.2067L8.55559 23.1966L19.2844 12.4678L18.2945 11.4778ZM7.56564 22.2067C6.90175 22.8706 6.90175 23.9469 7.56564 24.6108L8.55559 23.6209C8.43843 23.5037 8.43843 23.3138 8.55559 23.1966L7.56564 22.2067ZM7.56564 24.6108L15.6924 32.7376L16.6824 31.7476L8.55559 23.6209L7.56564 24.6108ZM15.6924 32.7376C16.3563 33.4015 17.4327 33.4015 18.0966 32.7376L17.1066 31.7476C16.9895 31.8648 16.7995 31.8648 16.6824 31.7476L15.6924 32.7376ZM18.0966 32.7376L28.8254 22.0087L27.8355 21.0188L17.1066 31.7476L18.0966 32.7376ZM28.8254 22.0087C29.4893 21.3448 29.4893 20.2685 28.8254 19.6046L27.8355 20.5945C27.9526 20.7117 27.9526 20.9016 27.8355 21.0188L28.8254 22.0087ZM28.8254 19.6046L25.9889 16.7681L24.999 17.758L27.8355 20.5945L28.8254 19.6046ZM25.1923 16.6314C24.7677 16.8342 24.2449 16.7585 23.8947 16.4084L22.9048 17.3983C23.6875 18.181 24.8525 18.3452 25.7956 17.8947L25.1923 16.6314ZM23.8947 16.4084C23.5446 16.0582 23.4689 15.5354 23.6717 15.1108L22.4084 14.5074C21.9579 15.4506 22.1221 16.6156 22.9048 17.3983L23.8947 16.4084Z" fill="#3DC293"/>
</svg>
