<svg width="25" height="24" viewBox="0 0 25 24" fill="none" xmlns="http://www.w3.org/2000/svg">
<path d="M0.8125 23.9999L2.4995 17.837C1.4585 16.033 0.9115 13.988 0.9125 11.891C0.9155 5.33499 6.25049 0 12.8055 0C15.9865 0.000999998 18.9725 1.24 21.2185 3.48799C23.4634 5.73599 24.6994 8.72398 24.6984 11.902C24.6954 18.459 19.3605 23.7939 12.8055 23.7939C10.8155 23.7929 8.85448 23.2939 7.11749 22.346L0.8125 23.9999ZM7.40948 20.193C9.08548 21.188 10.6855 21.784 12.8015 21.785C18.2495 21.785 22.6875 17.351 22.6905 11.9C22.6925 6.43799 18.2755 2.01 12.8095 2.008C7.35748 2.008 2.9225 6.44199 2.9205 11.892C2.9195 14.117 3.57149 15.783 4.66649 17.526L3.66749 21.174L7.40948 20.193ZM18.7965 14.729C18.7225 14.605 18.5245 14.531 18.2265 14.382C17.9295 14.233 16.4685 13.514 16.1955 13.415C15.9235 13.316 15.7255 13.266 15.5265 13.564C15.3285 13.861 14.7585 14.531 14.5855 14.729C14.4125 14.927 14.2385 14.952 13.9415 14.803C13.6445 14.654 12.6865 14.341 11.5515 13.328C10.6685 12.54 10.0715 11.567 9.89848 11.269C9.72548 10.972 9.88048 10.811 10.0285 10.663C10.1625 10.53 10.3255 10.316 10.4745 10.142C10.6255 9.96998 10.6745 9.84598 10.7745 9.64698C10.8735 9.44898 10.8245 9.27498 10.7495 9.12598C10.6745 8.97798 10.0805 7.51498 9.83348 6.91998C9.59148 6.34099 9.34648 6.41899 9.16448 6.40999L8.59448 6.39999C8.39648 6.39999 8.07448 6.47399 7.80248 6.77199C7.53048 7.06998 6.76249 7.78798 6.76249 9.25098C6.76249 10.714 7.82748 12.127 7.97548 12.325C8.12448 12.523 10.0705 15.525 13.0515 16.812C13.7605 17.118 14.3145 17.301 14.7455 17.438C15.4575 17.664 16.1055 17.632 16.6175 17.556C17.1885 17.471 18.3755 16.837 18.6235 16.143C18.8715 15.448 18.8715 14.853 18.7965 14.729Z" fill="white"/>
</svg>
